<svg xmlns="http://www.w3.org/2000/svg" xmlns:xlink="http://www.w3.org/1999/xlink" width="681.848" height="416.253" viewBox="0 0 681.848 416.253">
  <defs>
    <linearGradient id="linear-gradient" x1="0.5" y1="1" x2="0.5" gradientUnits="objectBoundingBox">
      <stop offset="0" stop-color="gray" stop-opacity="0.251"/>
      <stop offset="0.54" stop-color="gray" stop-opacity="0.122"/>
      <stop offset="1" stop-color="gray" stop-opacity="0.102"/>
    </linearGradient>
    <linearGradient id="linear-gradient-2" x1="0.495" y1="1.014" x2="0.495" y2="0" xlink:href="#linear-gradient"/>
    <linearGradient id="linear-gradient-3" x1="0.5" y1="1" x2="0.5" y2="0" xlink:href="#linear-gradient"/>
    <linearGradient id="linear-gradient-4" x1="0.5" y1="1" x2="0.5" y2="0" xlink:href="#linear-gradient"/>
  </defs>
  <g id="Group_15" data-name="Group 15" transform="translate(0.02 -0.02)">
    <circle id="Ellipse_76" data-name="Ellipse 76" cx="33.374" cy="33.374" r="33.374" transform="translate(34.911 14.033)" fill="#6c63ff"/>
    <path id="Path_203" data-name="Path 203" d="M198.518,234.586c14.013,31.651-3.862,68.1-24.9,95.542-7.042,9.2-14.817,18.851-15.793,30.395-1.177,14.121,8.385,27.1,19.727,35.585a83.065,83.065,0,0,0,73.567,12.441c21.278-6.741,39.167-21.967,60.631-28.1,35.894-10.28,73.941,6.762,104.68,28,21.759,15.011,45.061,33.3,71.292,30.086,18.457-2.261,34.12-15.219,44.752-30.474,5.133-7.365,9.6-15.621,17.071-20.589,4.444-2.958,9.663-4.523,14.881-5.643,47.659-10.187,98.241,14.673,145.269,1.888,31.766-8.614,57.092-33.74,72.842-62.649s23.1-61.55,29.224-93.89c4.35-22.972,7.961-47.789-2.039-68.916-10.581-22.369-35.075-35.929-59.691-38.471s-49.3,4.472-71.981,14.365c-28.334,12.39-56.109,29.734-87.035,29.792-21.062.043-41.148-8.04-61.285-14.207-33.668-10.3-68.679-15.42-103.567-20.143-33.4-4.523-67.135-8.729-100.739-6.059-23.776,1.888-44.774,10.976-67.846,15.183-15.039,2.742-30.151.718-44.91,5.312-18.177,5.686-36.87,18.859-37.875,39.6C173.844,203.38,191.088,217.8,198.518,234.586Z" transform="translate(-134.31 -119.24)" fill="#6c63ff" opacity="0.1"/>
    <path id="Path_204" data-name="Path 204" d="M647.044,299.367c-3.065-7.99-10.969-26.769-16.174-23.044-6.576,4.709,6.576,25.513,6.576,25.513.373,3.819-7.021,11.766-10.983,15.729v-.5a1.72,1.72,0,0,1-.172.431l-.33-.179a2.153,2.153,0,0,1-.467.854,8.389,8.389,0,0,0-.036-.854c-.761,3.223-14.042,7.308-14.042,7.308h-.976c-3.69,0-13.295-.833-17.746-7.954a39.381,39.381,0,0,0-8.708-10.158,7.415,7.415,0,0,0-4.128-1.565c-12.3-.79-22.254-7.014-24.243-8.342l-.366-.251-.079.23c-.467-.668-.919-1.378-1.342-2.111h0l-.215-.395a18.033,18.033,0,0,0,9.943-16.037v-.373a12.283,12.283,0,0,0,1.651-6.152v-2.154l2.807-2.5a11.543,11.543,0,0,0,3.266-3.92,4.644,4.644,0,0,0,.345-2.01,3.481,3.481,0,0,0-1.321-3.116c-2.154-1.486-5.743,0-7.3-2.067-.718-.933-.589-2.2-.94-3.3-.718-2.233-3.3-3.439-5.693-3.474s-4.681.833-6.978,1.486a40.969,40.969,0,0,1-14.86,1.393,9.706,9.706,0,0,0-4.07.144,5.607,5.607,0,0,0-3.3,3.841,9.023,9.023,0,0,0-.316,1.967A12.376,12.376,0,0,0,523.728,266v5.52a12.369,12.369,0,0,0,2.979,8.033,17.947,17.947,0,0,0,7.516,13.094v.438l.093.057a29.685,29.685,0,0,1-.79,5.075v-.366s-10.05,5.348-20.818,5.477h-1.185a8.019,8.019,0,0,0-5.743,2.154c-3.187,3-8.772,7.746-12.2,7.746-.718,0-18.837,3.539-21.838,4.128l-5.607-5.492-.172.323-.33-.323a13.631,13.631,0,0,0-1.823.266c-2.872-3.4-8.615-11.314-9.943-21.931,0,0,12.4-14.121,7.839-27.279-3.891-11.213-14.609,12.821-17.652,20.065a5.786,5.786,0,0,0-.187,3.984l10.072,32.462a15.225,15.225,0,0,0-.8,7.9h-.115l7.337,9.411a38.738,38.738,0,0,0,14.156,2.312A49.488,49.488,0,0,0,493,335.5h1.7l-.323.122h8.737l5.556,16.805c-.187,1.529-2.871,22.871-5.025,27.645a12,12,0,0,0-.847,5.025,38.362,38.362,0,0,0,1.6,9.727l4.867-.179-.187.38c-4.121,8.449-11.005,23.5-15.075,37.573l-7.085,14.357,5.312,64.393h.215l.409.065h0c.574.086,1.436.215,2.57.359l-.416.718L483.3,531.878s-8.349,17.093,10.122,13.869c0,0,6.827-1.981,9.612-13.64l12.146-11.393s.567-7.566-2.871-10.589c-.215-3.5-.761-13.7.079-16.159,1.012-2.972-4.307-37.15-4.307-37.15s19.225-39.878,30.868-40.868a6.382,6.382,0,0,1,2.52.33c9.569,3.115,21.163,26.253,24.573,33.453h0l.158.33v.065l.129.28v.079l.115.244v.065l.1.223v.05l.086.18v.072l.065.136v.057l.043.1v.122h0l.036.086,1.515,44.831h0l.151.079h.072l-.129.926-.66,4.63s8.349,17.588,7.839,19.813,5.564,11.149,14.164,8.672,3.482-16.439,3.482-16.439l-8.284-17.071-.366-.761a16.28,16.28,0,0,0,2.326-1.73s-2.527-18.327,0-22.29,3.288-22.046,3.288-22.046-1.773-12.383-4.81-17.832L572.637,387.2c3.812,3.546,6.777,4.932,9.253,4.838h.409a6.181,6.181,0,0,0,3.116-.775,8.782,8.782,0,0,0,1.436-1.012,2.267,2.267,0,0,0,.237-.237h0c3.539-2.972-4.049-14.616-8.349-21.536-4.142-6.676,1.565-24.817,2-26.166a6.851,6.851,0,0,1,1.228-.718,7.573,7.573,0,0,1,2.814-.61c4.121.144,9.189,2.513,15.463,3.7a72.956,72.956,0,0,0,13.2,1.027h.258c1.759,0,3.352-.036,4.645-.086a7.847,7.847,0,0,0,3.374-.912h0a10.185,10.185,0,0,0,2.4-1.938l11.012-12.441-.287.136a6.189,6.189,0,0,0,0-4.379l11.637-20.1A7.646,7.646,0,0,0,647.044,299.367Z" transform="translate(-214.963 -155.837)" fill="url(#linear-gradient)"/>
    <path id="Path_205" data-name="Path 205" d="M532.072,620.459l-11.723,11.235c-2.685,11.486-9.282,13.431-9.282,13.431-17.825,3.173-9.77-13.64-9.77-13.64L512.6,612.354,514,609.992s8.062-2.441,13.431-.976a4.593,4.593,0,0,1,1.83.991C532.625,612.929,532.072,620.459,532.072,620.459Z" transform="translate(-230.729 -257.282)" fill="#444176"/>
    <path id="Path_206" data-name="Path 206" d="M637.228,624.606c-8.306,2.441-14.164-6.346-13.64-8.55S616,596.544,616,596.544l.632-4.566.589-4.228,13.64.976,1.285,2.7,8,16.834S645.533,622.165,637.228,624.606Z" transform="translate(-263.603 -251.414)" fill="#444176"/>
    <path id="Path_207" data-name="Path 207" d="M534.547,611.9c-1.285,2.2-11.7,1.091-16.777.4l1.393-2.362s8.062-2.441,13.431-.976a4.594,4.594,0,0,1,1.83.991C534.5,611.149,534.547,611.9,534.547,611.9Z" transform="translate(-235.889 -257.268)" opacity="0.1"/>
    <path id="Path_208" data-name="Path 208" d="M632.4,591.406c-6.985,4.652-14.422,1.134-15.542.553l.589-4.228,13.639.976Z" transform="translate(-263.845 -251.409)" opacity="0.1"/>
    <path id="Path_209" data-name="Path 209" d="M603.255,521.668c-2.441,3.905,0,21.981,0,21.981-8.062,7.329-17.581,1.953-17.581,1.953l-1.436-44.2s-15.872-36.389-27.107-35.413-29.792,40.294-29.792,40.294,5.126,33.7,4.149,36.611,0,17.093,0,17.093c-1.708,2.929-19.533,0-19.533,0l-5.126-63.5,6.805-14.171c3.912-13.869,10.56-28.715,14.537-37.042,1.974-4.142,3.3-6.669,3.3-6.669l12.993-2.706,42.175-8.744,15.154,55.161c2.929,5.37,4.638,17.581,4.638,17.581S605.7,517.763,603.255,521.668Z" transform="translate(-232.803 -206.107)" fill="#565387"/>
    <g id="Group_9" data-name="Group 9" transform="translate(273.999 221.024)" opacity="0.1">
      <path id="Path_210" data-name="Path 210" d="M610.3,560.854l-1.436-44.2S593,480.266,581.762,481.242a6.116,6.116,0,0,0-1.472.33c10.955,3.64,24.673,35.082,24.673,35.082l1.436,44.2a17.23,17.23,0,0,0,9.713,1.773,17.281,17.281,0,0,1-5.808-1.773Z" transform="translate(-527.526 -442.384)"/>
      <path id="Path_211" data-name="Path 211" d="M515.821,560,510.7,496.5l6.834-14.192c3.912-13.869,10.56-28.715,14.537-37.042,1.974-4.142,3.3-6.669,3.3-6.669l12.994-2.706,38.5-8-.208-.768-42.2,8.772L531.456,438.6s-1.321,2.527-3.3,6.669c-3.991,8.327-10.624,23.2-14.537,37.042l-6.834,14.164,5.126,63.5s9.734,1.6,15.506,1.249A115.367,115.367,0,0,1,515.821,560Z" transform="translate(-506.79 -427.12)"/>
    </g>
    <path id="Path_212" data-name="Path 212" d="M473.223,338.21s-13.92.718-11.967,15.384l3.905.488,5.858-6.346,2.929-5.37v-1.22Z" transform="translate(-219.892 -181.012)" fill="#ced2df"/>
    <path id="Path_213" data-name="Path 213" d="M473.223,338.21s-13.92.718-11.967,15.384l3.905.488,5.858-6.346,2.929-5.37v-1.22Z" transform="translate(-219.892 -181.012)" opacity="0.1"/>
    <path id="Path_214" data-name="Path 214" d="M693.431,345.69s11.486,6.1,8.55,13.187l-3.661,1.436-4.881-2.685-.718-6.346.488-4.393Z" transform="translate(-285.247 -183.122)" fill="#ced2df"/>
    <path id="Path_215" data-name="Path 215" d="M693.431,345.69s11.486,6.1,8.55,13.187l-3.661,1.436-4.881-2.685-.718-6.346.488-4.393Z" transform="translate(-285.247 -183.122)" opacity="0.1"/>
    <rect id="Rectangle_35" data-name="Rectangle 35" width="40.05" height="30.28" rx="15.14" transform="translate(309.526 99.56)" fill="#88455e"/>
    <path id="Path_216" data-name="Path 216" d="M469.562,320.175l-8.55,13.64-.718-2.426-11.615-37.846a5.822,5.822,0,0,1,.18-3.927c2.936-7.136,13.288-30.868,17.042-19.777,4.393,12.922-7.574,26.863-7.574,26.863a43.016,43.016,0,0,0,10.215,22.355C469.174,319.795,469.562,320.175,469.562,320.175Z" transform="translate(-216.324 -160.902)" fill="#ec8c9c"/>
    <path id="Path_217" data-name="Path 217" d="M691.16,332.193s13.431-12.7,12.922-17.825c0,0-12.7-20.51-6.346-25.125,5.025-3.676,12.656,14.846,15.614,22.721a7.681,7.681,0,0,1-.51,6.461l-16.052,28.42Z" transform="translate(-284.807 -167.062)" fill="#ec8c9c"/>
    <path id="Path_218" data-name="Path 218" d="M567.768,299.929s2.441,15.628-4.637,21.493,20.273,5.829,20.273,5.829l9.77-9.038s-11.235-10.5-7.818-18.313Z" transform="translate(-248.356 -170.204)" fill="#ec8c9c"/>
    <path id="Path_219" data-name="Path 219" d="M561.446,324.386s10.5,7.818,21-.976l17.093,35.413-.976,43.223s-35.413,18.313-50.064,7.085-2.441-17.093-2.441-17.093l-3.417-33.209,3.661-21.493s6.59-10.258,7.085-10.258S561.446,324.386,561.446,324.386Z" transform="translate(-242.523 -176.836)" opacity="0.1"/>
    <path id="Path_220" data-name="Path 220" d="M561.449,323.706s10.5,7.832,21.005-.976l17.092,35.413-.976,43.223s-35.413,18.313-50.064,7.085-2.441-17.093-2.441-17.093l-3.417-33.209,3.661-21.493s6.59-10.258,7.085-10.258S561.449,323.706,561.449,323.706Z" transform="translate(-242.526 -176.645)" fill="#ebf1f6"/>
    <path id="Path_221" data-name="Path 221" d="M539.041,319s-9.957,5.671-20.768,5.391a7.652,7.652,0,0,0-5.521,2.111c-3.08,2.958-8.471,7.638-11.809,7.638-.718,0-21.493,4.149-21.493,4.149l-5.492-5.492s-8.184,15.994-12.089,15.262l7.085,9.282s13.431,5.858,31.012-1.22h10.258l5.37,16.6s-2.685,22.469-4.882,27.351.718,14.408.718,14.408l19.289-.718s.976-9.526,2.441-10.768-5.126-43.223-5.126-43.223-4.393-23.69,11.723-32.232Z" transform="translate(-220.118 -175.592)" opacity="0.1"/>
    <path id="Path_222" data-name="Path 222" d="M552.841,439.38a63.738,63.738,0,0,0-1.515,8.808l-14.767.56c1.974-4.142,3.295-6.669,3.295-6.669Z" transform="translate(-241.19 -209.555)" opacity="0.1"/>
    <path id="Path_223" data-name="Path 223" d="M474.228,340.657l-8.55,13.64-.718-2.426c3.137-3.116,6.813-9.627,8.277-12.34A14.494,14.494,0,0,0,474.228,340.657Z" transform="translate(-220.99 -181.384)" opacity="0.1"/>
    <path id="Path_224" data-name="Path 224" d="M538.841,319s-10.452,5.671-21.256,5.391a7.652,7.652,0,0,0-5.52,2.111c-3.08,2.958-8.471,7.638-11.809,7.638-.718,0-21.493,4.149-21.493,4.149l-5.513-5.5s-8.184,15.994-12.089,15.262l7.085,9.282s13.431,5.858,31.012-1.22h10.258l5.37,16.6S512.2,395.181,510,400.062s.718,14.408.718,14.408l19.289-.718s.976-9.526,2.441-10.768-5.126-43.223-5.126-43.223-4.393-23.69,11.723-32.232Z" transform="translate(-219.918 -175.592)" fill="#ced2df"/>
    <path id="Path_225" data-name="Path 225" d="M597.307,316.94a47.521,47.521,0,0,0,23.266,8.471,7.072,7.072,0,0,1,3.984,1.543A38.565,38.565,0,0,1,632.964,337c5.37,8.794,18.557,7.818,18.557,7.818s12.821-4.027,13.553-7.179c0,0,.366,17.229,8.428,13.065l-10.6,12.218a7.48,7.48,0,0,1-5.348,2.577,78.608,78.608,0,0,1-16.748-.926c-8.794-1.709-15.14-5.858-19.777-2.2,0,0-6.1,19.045-1.953,25.886s11.486,18.313,8.062,21.249-7.574,2.685-14.408-4.393-7.573-19.045-7.573-19.045l1.708-30.768s-6.59-23.2-12.922-27.839Z" transform="translate(-257.379 -175.011)" opacity="0.1"/>
    <path id="Path_226" data-name="Path 226" d="M674.843,350.493l-10.632,12.268a7.473,7.473,0,0,1-2.563,1.91h0a7.445,7.445,0,0,1-2.771.653,77.68,77.68,0,0,1-16.748-.926c-8.227-1.6-14.314-5.334-18.866-2.814a6.672,6.672,0,0,0-.919.61s-6.1,19.045-1.953,25.886,11.486,18.313,8.062,21.249a7.9,7.9,0,0,1-1.91,1.242c-3.073,1.385-6.884.187-12.5-5.635-6.834-7.085-7.574-19.045-7.574-19.045l1.709-30.768s-6.59-23.2-12.922-27.839l2.793-10.014c1.924,1.307,11.529,7.444,23.4,8.227a7.071,7.071,0,0,1,3.984,1.543,38.593,38.593,0,0,1,8.406,10.05c5.37,8.794,18.557,7.818,18.557,7.818a71.277,71.277,0,0,0,9.239-3.676h0a14.082,14.082,0,0,0,4.307-2.872,2.155,2.155,0,0,0,.467-.861S666.789,354.642,674.843,350.493Z" transform="translate(-257.751 -175.104)" opacity="0.1"/>
    <path id="Path_227" data-name="Path 227" d="M674.155,350.647,663.53,362.93a7.473,7.473,0,0,1-2.068,1.666h0a7.452,7.452,0,0,1-3.259.9,77.679,77.679,0,0,1-16.748-.926c-7.932-1.543-13.884-5.075-18.37-3.058a6.643,6.643,0,0,0-1.436.854s-6.1,19.045-1.953,25.886,11.486,18.313,8.062,21.249a8.464,8.464,0,0,1-1.436,1c-3.159,1.744-7.064.718-12.986-5.391-6.834-7.085-7.573-19.045-7.573-19.045l1.708-30.768s-6.59-23.2-12.922-27.839l2.929-10.5.352.244c1.924,1.306,11.529,7.444,23.4,8.227a7.071,7.071,0,0,1,3.984,1.543,38.589,38.589,0,0,1,8.406,10.05c5.37,8.794,18.557,7.818,18.557,7.818a71.264,71.264,0,0,0,9.239-3.676h0c2.218-1.134,4.027-2.376,4.307-3.51v.617C665.942,341.228,667.019,354.315,674.155,350.647Z" transform="translate(-257.551 -175.014)" fill="#ced2df"/>
    <path id="Path_228" data-name="Path 228" d="M587.8,300.45H569.85a43.916,43.916,0,0,1,.337,8.615,18.449,18.449,0,0,0,18.966,1.364C587.431,307.241,586.383,303.623,587.8,300.45Z" transform="translate(-250.582 -170.359)" opacity="0.1"/>
    <circle id="Ellipse_77" data-name="Ellipse 77" cx="17.825" cy="17.825" r="17.825" transform="translate(312.333 106.035)" fill="#ec8c9c"/>
    <path id="Path_229" data-name="Path 229" d="M574.373,277.529c1.989-.237,3.977-.94,5.937-.546,1.78.359,3.3,1.586,5.075,1.96,3.432.718,6.619-1.809,9.21-4.164l5.6-5.1a11.427,11.427,0,0,0,3.159-3.862,3.876,3.876,0,0,0-.948-4.566c-2.046-1.436-5.571,0-7.049-2.039-.668-.919-.567-2.154-.912-3.252-.718-2.2-3.187-3.4-5.5-3.424s-4.523.818-6.734,1.436a38.766,38.766,0,0,1-14.357,1.371,9.174,9.174,0,0,0-3.927.136,5.492,5.492,0,0,0-3.187,3.783c-1.105,3.905.783,10.2,2.678,13.7S570.59,278,574.373,277.529Z" transform="translate(-247.92 -156.842)" opacity="0.1"/>
    <path id="Path_230" data-name="Path 230" d="M574.373,276.849c1.989-.237,3.977-.94,5.937-.546,1.78.359,3.3,1.587,5.075,1.96,3.432.718,6.619-1.809,9.21-4.164l5.6-5.1a11.427,11.427,0,0,0,3.159-3.862,3.876,3.876,0,0,0-.948-4.566c-2.046-1.436-5.571,0-7.049-2.039-.668-.919-.567-2.154-.912-3.252-.718-2.2-3.187-3.4-5.5-3.424s-4.523.818-6.734,1.436a38.764,38.764,0,0,1-14.357,1.371,9.175,9.175,0,0,0-3.927.136,5.492,5.492,0,0,0-3.187,3.783c-1.105,3.905.783,10.2,2.678,13.7S570.59,277.28,574.373,276.849Z" transform="translate(-247.92 -156.65)" fill="#88455e"/>
    <path id="Path_231" data-name="Path 231" d="M536.55,394s3.905.488,5.858,2.929a10.523,10.523,0,0,0,5.37,3.173" transform="translate(-241.188 -196.752)" opacity="0.1"/>
    <path id="Path_232" data-name="Path 232" d="M487.505,349.09s3.187,7.114,1.22,7.832-1.22,5.858-1.22,5.858" transform="translate(-227.311 -184.081)" opacity="0.1"/>
    <g id="Group_10" data-name="Group 10" transform="translate(261.07 143.523)" opacity="0.1">
      <path id="Path_233" data-name="Path 233" d="M489,340.325s20.754-4.149,21.472-4.149c3.345,0,8.729-4.68,11.809-7.638a7.537,7.537,0,0,1,3.345-1.859h-.266a7.653,7.653,0,0,0-5.521,2.111c-3.08,2.958-8.471,7.638-11.809,7.638-.582,0-13.862,2.635-19.253,3.7Z" transform="translate(-488.78 -321.28)"/>
      <path id="Path_234" data-name="Path 234" d="M563.158,320.072v-.912a51.816,51.816,0,0,1-15.908,5.09,49.161,49.161,0,0,0,15.908-4.178Z" transform="translate(-505.276 -319.16)"/>
      <path id="Path_235" data-name="Path 235" d="M528.9,428.883s-2.929-9.526-.718-14.408,4.882-27.351,4.882-27.351l-5.355-16.6H517.425l-.625.244h8.435l5.348,16.612s-2.685,22.469-4.882,27.351.718,14.408.718,14.408l19.289-.718v-.151Z" transform="translate(-496.685 -333.65)"/>
    </g>
    <g id="Group_11" data-name="Group 11" transform="translate(348.456 175.647)" opacity="0.1">
      <path id="Path_236" data-name="Path 236" d="M632.506,431.76a8.475,8.475,0,0,1-1.436,1c-3.159,1.744-7.064.718-12.986-5.391-5.427-5.621-7.006-14.357-7.43-17.667l-.144,2.527s.718,11.967,7.574,19.045c5.922,6.131,9.828,7.136,12.986,5.391a8.475,8.475,0,0,0,1.436-1c1.026-.883,1.084-2.541.545-4.609A2.26,2.26,0,0,1,632.506,431.76Z" transform="translate(-610.51 -376.829)"/>
      <path id="Path_237" data-name="Path 237" d="M680.117,364.262l-6.913,7.99a7.47,7.47,0,0,1-2.068,1.666h0a7.452,7.452,0,0,1-3.259.9,77.681,77.681,0,0,1-16.748-.926c-7.932-1.543-13.884-5.075-18.37-3.058a6.635,6.635,0,0,0-1.436.854s-3.941,12.3-3.338,20.682a80.759,80.759,0,0,1,3.338-16.777,6.637,6.637,0,0,1,1.436-.854c4.494-2.017,10.438,1.515,18.37,3.058a78.591,78.591,0,0,0,16.748.926,7.45,7.45,0,0,0,3.259-.9h0a7.47,7.47,0,0,0,2.068-1.644l10.632-12.268a4.185,4.185,0,0,1-3.719.352Z" transform="translate(-615.423 -363.91)"/>
    </g>
    <path id="Path_238" data-name="Path 238" d="M265.74,486.89a.553.553,0,0,0,.653.086A2.222,2.222,0,0,1,265.74,486.89Z" transform="translate(-164.784 -222.959)" fill="url(#linear-gradient-2)"/>
    <path id="Path_239" data-name="Path 239" d="M299.214,307.059c-1.292-.373-3.137-.983-5.355-1.759a28.084,28.084,0,0,0,4.96-9.993l-.187.072c.065-.223.129-.438.187-.668-4.257,1.73-8.966-1.2-11.967-4.961s-5.025-8.428-8.313-11.888a38.05,38.05,0,0,0-4.408-3.8,6.094,6.094,0,0,0-3.195-1.565c-1.917-.057-3.417,1.823-5.262,2.376a7.178,7.178,0,0,1-3.668-.136c-4.759-1.091-9.332-3.108-14.192-3.64a16.634,16.634,0,0,0-7.7.869c-2.441.926-3.553,2.771-5.528,4.25-2.154,1.586-6.36,1.551-8.866,1.831a63.527,63.527,0,0,1-9.16.38,21.442,21.442,0,0,0-5.269.194c-3.64.8-6.561,3.69-9.289,6.461a4.788,4.788,0,0,0-1.536,2.4,3.036,3.036,0,0,0,0,.8,5.176,5.176,0,0,0,.366,2.118,28,28,0,0,0,3.525,7.014A20.256,20.256,0,0,1,207.4,302.4a9.668,9.668,0,0,1,.467,2.871,20.884,20.884,0,0,1-.323,3.087,38.765,38.765,0,0,1-2.362,8.22,14.932,14.932,0,0,0-1.378,4.307,6.87,6.87,0,0,0,0,.919c-.179,4.738,4.6,8.148,5.528,12.857a7.682,7.682,0,0,1,.136,1.184,8.022,8.022,0,0,1-4.243,6.949c.215.086.438.158.66.23a5.987,5.987,0,0,1-.66.359,13.4,13.4,0,0,0,1.378.445,32.017,32.017,0,0,0-6.97,8.614c-8.306,15.463-64.558,45.75-64.558,45.75l.833.474-.675.438c-4.867,3.238-16.289,12.678-5.965,24.616,0,0,8.062-12.721,13.711-18.141.251-.244.5-.467.718-.675a1.651,1.651,0,0,1,.215,1.307l36.985-20.782s13.144-9.2,16.813-11.278a30.259,30.259,0,0,1,8.335-3.589l-.431.18a16.884,16.884,0,0,1,4.243-.6c6.547.1,13.64,4.9,15.973,23.884,3.13,25.427,1.68,30.014.675,30.639a1.84,1.84,0,0,1-.366-.065.619.619,0,0,0,.1.072,1.921,1.921,0,0,1-.4-.072.574.574,0,0,0,.546.129.51.51,0,0,0,.409-.05h0a4.257,4.257,0,0,0,.5,0,5.279,5.279,0,0,1-.05.718c-.05,0-.294.136,0,.151h0c-.079,1.436-.072,2.993,0,4.623-3.252.18-6.5.373-9.332.546l.251-1.342.115-.6c2.5-.2,4.867-.933,5.147-2.958.61-4.451-5.5-6.827-10.7-7.121s-36.367,1.78-36.367,1.78-4.673,6.052,10.151,7.9l1.371.718c5.808,3.309,13.683,9.4,17.459,12.4l.524.416-1.694,1.378c9.167,2.075,18.033,37.107,22.922,53.122s15.585,15.434,24.451,13.058c8.306-2.225,9.332-26.346,9.469-29.375v-.309l14.774,18.248,1.12,1.385q.646.337,1.278.632c11.184,5.319,23.539-4.882,20.029-16.511-3.553-11.723-9.067-29.059-12.742-36.389-3.08-6.138-7.057-16.332-9.469-22.714a7.671,7.671,0,0,0,.912-.438s-.057-.287-.151-.811l.151-.079s-3.589-18.464-3.747-31.586v-1.141c2.671-.61,4.365-.847,4.365-.847l.05-.574-.309.065,1.486-17.006s5.456-11.608,1.278-16.439a10.151,10.151,0,0,1-2.448-5.025c-.718-4.444,0-11.859,9.727-18.019,14.975-9.5,20.818-17.229,20.818-17.229S308.381,309.758,299.214,307.059Zm-29.741,11.8V311c2.778-.136,5.614.187,8.406,0a21.274,21.274,0,0,0,4.056-.682l.675.467a73.937,73.937,0,0,1-13.137,8.076ZM227.01,442.076c1.1.761,2.2,1.551,3.288,2.347.675,3.876,1.271,6.612,1.314,6.805A53.74,53.74,0,0,0,227.01,442.076Z" transform="translate(-125.1 -162.043)" fill="url(#linear-gradient-3)"/>
    <path id="Path_240" data-name="Path 240" d="M286.689,500.32l-.646,3.51-.5,2.685-.9,4.91-8.772,6.138s-.79-.675-2.1-1.745c-3.589-2.958-11.149-8.959-16.7-12.2a18.662,18.662,0,0,0-4.587-2.118Z" transform="translate(-161.046 -226.748)" fill="#ffbdc6"/>
    <path id="Path_241" data-name="Path 241" d="M286.687,500.32l-.646,3.51a27.284,27.284,0,0,1-5.786-.294l-20.467.294c-.969-.057-1.874-.136-2.721-.223a18.662,18.662,0,0,0-4.587-2.118Z" transform="translate(-161.043 -226.748)" opacity="0.1"/>
    <path id="Path_242" data-name="Path 242" d="M277.464,500.189s10.237,1.752,10.818-2.635-5.262-6.7-10.223-7.028-34.8,1.766-34.8,1.766S238,499.306,257,500.476Z" transform="translate(-158.253 -223.975)" fill="#7679b4"/>
    <path id="Path_243" data-name="Path 243" d="M286.689,500.32l-.646,3.51-.5,2.685-.9,4.91-8.772,6.138s-.79-.675-2.1-1.745c-3.589-2.958-11.149-8.959-16.7-12.2a18.662,18.662,0,0,0-4.587-2.118Z" transform="translate(-161.046 -226.748)" opacity="0.1"/>
    <path id="Path_244" data-name="Path 244" d="M286.687,500.32l-.646,3.51a27.284,27.284,0,0,1-5.786-.294l-20.467.294c-.969-.057-1.874-.136-2.721-.223a18.662,18.662,0,0,0-4.587-2.118Z" transform="translate(-161.043 -226.748)" opacity="0.1"/>
    <path id="Path_245" data-name="Path 245" d="M277.464,500.189s10.237,1.752,10.818-2.635-5.262-6.7-10.223-7.028-34.8,1.766-34.8,1.766S238,499.306,257,500.476Z" transform="translate(-158.253 -223.975)" opacity="0.1"/>
    <rect id="Rectangle_36" data-name="Rectangle 36" width="53.503" height="63.445" transform="translate(88.07 132.058)" fill="#a66477"/>
    <rect id="Rectangle_37" data-name="Rectangle 37" width="53.503" height="63.445" transform="translate(88.07 132.058)" opacity="0.1"/>
    <path id="Path_246" data-name="Path 246" d="M152.421,452.429a8.571,8.571,0,0,0-3.259,2.3c-5.406,5.341-13.116,17.868-13.116,17.868-9.878-11.759,1.055-21.055,5.743-24.25,1.134-.775,1.9-1.192,1.9-1.192Z" transform="translate(-127.065 -211.75)" fill="#ffbdc6"/>
    <path id="Path_247" data-name="Path 247" d="M288.173,331.09s2.635,18.421,11.694,22.807-11.694,12.57-11.694,12.57L259.81,355.943s16.08-5.262,12.864-20.761Z" transform="translate(-163.111 -179.003)" fill="#ffbdc6"/>
    <path id="Path_248" data-name="Path 248" d="M243.559,485.45l-.646,3.51-.5,2.685-.9,4.91-8.772,6.138s-.79-.675-2.1-1.744c-3.589-2.958-11.149-8.959-16.7-12.2a18.663,18.663,0,0,0-4.587-2.118Z" transform="translate(-148.878 -222.553)" fill="#ffbdc6"/>
    <path id="Path_249" data-name="Path 249" d="M243.557,485.45l-.646,3.51a27.284,27.284,0,0,1-5.786-.294l-20.467.294c-.969-.057-1.874-.136-2.721-.223a18.662,18.662,0,0,0-4.587-2.118Z" transform="translate(-148.875 -222.553)" opacity="0.1"/>
    <path id="Path_250" data-name="Path 250" d="M234.291,485.317s10.237,1.752,10.818-2.635-5.262-6.727-10.237-7.014-34.8,1.752-34.8,1.752-5.262,7.014,13.74,8.184Z" transform="translate(-146.07 -219.785)" fill="#7679b4"/>
    <path id="Path_251" data-name="Path 251" d="M250.743,494.008l-.9,4.91-8.772,6.138s-.79-.675-2.1-1.744l11.6-9.512Z" transform="translate(-157.232 -224.908)" opacity="0.1"/>
    <path id="Path_252" data-name="Path 252" d="M308.179,555.831q-.6-.294-1.22-.625l-1.07-1.364L291.762,535.9v.316c-.093,2.979-1.113,26.741-9.052,28.93-8.478,2.34-18.715,2.922-23.388-12.864s-13.159-50.287-21.931-52.333L250.4,489.269S259.012,499.32,262.53,509c-.129-.617-6.08-28.406-1.17-33.316h42.685s6.576,18.765,11.113,28.069c3.518,7.222,8.794,24.293,12.2,35.843A13.73,13.73,0,0,1,308.179,555.831Z" transform="translate(-156.786 -219.796)" fill="#7679b4"/>
    <path id="Path_253" data-name="Path 253" d="M315.618,466.919c-6.583,3.9-35.527,2.312-44.96,1.68l-2.563-.187c-.28,0,.043-.158.043-.158l.266-2.656,7.014-17.832L312.991,426a32.515,32.515,0,0,0-.955,9.828C312.223,448.735,315.618,466.919,315.618,466.919Z" transform="translate(-165.417 -205.78)" opacity="0.1"/>
    <path id="Path_254" data-name="Path 254" d="M315.5,465.714c-6.583,3.9-35.527,2.312-44.96,1.68l-2.563-.187h-.424l.467-.122,2.312-.61L275.3,446.59l37.573-21.78a32.511,32.511,0,0,0-.955,9.828C312.1,447.523,315.5,465.714,315.5,465.714Z" transform="translate(-165.295 -205.444)" fill="#f2f1f2"/>
    <path id="Path_255" data-name="Path 255" d="M312.084,434.584c-7.638,1.759-24.451,6.935-30.912,19.383-4.307,8.313-7.9,11.881-10.459,13.374l-2.563-.187.043-.158,2.312-.61,4.968-19.885,37.573-21.78A32.516,32.516,0,0,0,312.084,434.584Z" transform="translate(-165.464 -205.419)" opacity="0.1"/>
    <path id="Path_256" data-name="Path 256" d="M147.465,447.17l8.772,5.262a8.57,8.57,0,0,0-3.259,2.3c-.718-2.154-5.327-5.111-7.408-6.375C146.7,447.586,147.465,447.17,147.465,447.17Z" transform="translate(-130.881 -211.753)" opacity="0.1"/>
    <path id="Path_257" data-name="Path 257" d="M265.757,484.309a.524.524,0,0,1-.617-.079A2.107,2.107,0,0,0,265.757,484.309Z" transform="translate(-164.615 -222.208)" opacity="0.1"/>
    <path id="Path_258" data-name="Path 258" d="M251.782,343.665s-7.9.876-13.453-4.968c0,0-23.388,6.726-31.285,21.931s-61.694,45.025-61.694,45.025,9.332,5.262,8.478,7.9L189.2,393.083s12.57-9.067,16.08-11.113,22.807-14.616,26.9,19.591,0,30.151,0,30.151,5.851,2.046,14.357-14.357,34.8-20.172,34.8-20.172l1.436-17.229s5.219-11.428,1.22-16.2a10.122,10.122,0,0,1-2.34-4.946c-.668-4.379,0-11.68,9.332-17.746,14.357-9.332,19.885-16.956,19.885-16.956s.294-5.556-8.478-8.184-44.443-16.956-44.443-16.956l-1.17,4.968,28.069,19.885s-14.034,11.4-25.126,11.113C259.678,334.885,261.724,343.37,251.782,343.665Z" transform="translate(-130.819 -169.941)" fill="#565388"/>
    <path id="Path_259" data-name="Path 259" d="M294.3,339.439a57.443,57.443,0,0,1-1.615-7.179l-15.5,4.121a17.085,17.085,0,0,1-.352,8.937,16.669,16.669,0,0,0,17.466-5.886Z" transform="translate(-167.913 -179.333)" opacity="0.1"/>
    <circle id="Ellipse_78" data-name="Ellipse 78" cx="16.669" cy="16.669" r="16.669" transform="translate(96.842 132.345)" fill="#ffbdc6"/>
    <path id="Path_260" data-name="Path 260" d="M277.741,273.942c4.623.524,9.024,2.513,13.575,3.589a6.706,6.706,0,0,0,3.51.136c1.766-.546,3.2-2.4,5.025-2.34a5.283,5.283,0,0,1,3.058,1.543,36.69,36.69,0,0,1,4.214,3.74c3.137,3.41,5.09,8,7.954,11.709s7.38,6.59,11.45,4.889c-2.764,10.768-11.838,19-21.644,19.67-3.912.266-7.9-.546-11.709.6a10.251,10.251,0,0,1-2.958.718c-2.154,0-3.934-2-5.3-3.948-3.187-4.58-5.743-9.777-9.332-13.948-1.185-1.378-2.584-2.692-4.257-2.943s-3.216.546-4.709,1.321a22.357,22.357,0,0,0-6.892,4.781,9.556,9.556,0,0,0-2.326,8.406c.424,1.594,1.4,3.029,1.436,4.7,0,2.656-2.312,4.6-2.778,7.179a27.712,27.712,0,0,0-.115,3.274c-.208,3.546-2.52,6.461-4.946,8.679a6.243,6.243,0,0,0-2.261,3.137c-.187.912,0,1.881-.122,2.807-.352,2.3-2.649,3.467-4.681,3.769a13.568,13.568,0,0,1-7.021-.833c2.871-1.342,4.587-5.169,3.927-8.614-.9-4.745-5.671-8.148-5.269-12.986a15.027,15.027,0,0,1,1.321-4.271,39.087,39.087,0,0,0,2.254-8.1,13.719,13.719,0,0,0-.136-6.461,20.4,20.4,0,0,0-2.915-4.91,27.867,27.867,0,0,1-3.374-6.913,4.846,4.846,0,0,1-.323-2.283,4.731,4.731,0,0,1,1.436-2.369c2.613-2.735,5.413-5.585,8.887-6.375a19.929,19.929,0,0,1,5.025-.194,59.049,59.049,0,0,0,8.765-.373c2.4-.28,6.461-.244,8.485-1.809,1.888-1.436,2.958-3.266,5.291-4.185A15.485,15.485,0,0,1,277.741,273.942Z" transform="translate(-155.372 -162.839)" opacity="0.1"/>
    <path id="Path_261" data-name="Path 261" d="M308.48,513.76s9.648,19,6.726,24.853" transform="translate(-176.842 -230.54)" opacity="0.1"/>
    <path id="Path_262" data-name="Path 262" d="M327.252,575.961l-14.128-17.947v.316s-.818-5.8,1.874-3.848c5.894,4.264,15.327,11.256,15.528,12.462S328.616,572.989,327.252,575.961Z" transform="translate(-178.12 -241.915)" opacity="0.1"/>
    <g id="Group_12" data-name="Group 12" transform="translate(14.825 128.979)" opacity="0.1">
      <path id="Path_263" data-name="Path 263" d="M303.953,348.907s1.192,4.939-2.663,7.408c5.937-1.019,6.2-5.635,6.016-7.645A18.7,18.7,0,0,1,303.953,348.907Z" transform="translate(-189.639 -312.942)"/>
      <path id="Path_264" data-name="Path 264" d="M148.983,420.285s53.8-29.82,61.694-45.025c5.664-10.912,19.311-17.451,26.561-20.28-5.291,1.773-23.094,8.571-29.785,21.45-7.9,15.2-61.694,45.025-61.694,45.025Z" transform="translate(-145.76 -314.722)"/>
      <path id="Path_265" data-name="Path 265" d="M314.321,332.547c9.153-2.872,17.9-9.957,17.9-9.957L304.156,302.7l.639-2.728L302.11,298.9l-1.17,4.968,28.069,19.885A67.732,67.732,0,0,1,314.321,332.547Z" transform="translate(-189.541 -298.9)"/>
      <path id="Path_266" data-name="Path 266" d="M319.83,438.315a69.553,69.553,0,0,1,11-2.778l.05-.567a74.489,74.489,0,0,0-11.055,3.345Z" transform="translate(-194.87 -337.289)"/>
      <path id="Path_267" data-name="Path 267" d="M263.116,461.188h-.258a.524.524,0,0,1-.617-.079,2.153,2.153,0,0,0,.617.079c.962-.56,2.4-4.925-.617-30.194-3.23-26.978-15.908-24.86-22.85-21.759,7.093-1.953,16.856-.266,19.634,22.929,3.022,25.269,1.579,29.641.617,30.194A6.461,6.461,0,0,0,263.116,461.188Z" transform="translate(-172.176 -329.53)"/>
      <path id="Path_268" data-name="Path 268" d="M267.357,483.909a2.154,2.154,0,0,1-.617-.079.524.524,0,0,0,.617.079Z" transform="translate(-179.892 -351.074)"/>
    </g>
    <path id="Path_269" data-name="Path 269" d="M277.741,273.152c4.623.524,9.024,2.513,13.575,3.589a6.7,6.7,0,0,0,3.51.136c1.766-.546,3.2-2.4,5.025-2.34a5.282,5.282,0,0,1,3.058,1.543,36.7,36.7,0,0,1,4.214,3.74c3.137,3.41,5.09,8,7.954,11.708s7.38,6.59,11.45,4.889c-2.764,10.768-11.838,19-21.644,19.67-3.912.266-7.9-.546-11.708.6a10.254,10.254,0,0,1-2.958.718c-2.154,0-3.934-2-5.3-3.948-3.187-4.58-5.743-9.777-9.332-13.948-1.184-1.378-2.584-2.692-4.257-2.943s-3.216.546-4.709,1.321a22.357,22.357,0,0,0-6.892,4.781,9.557,9.557,0,0,0-2.326,8.406c.424,1.594,1.4,3.029,1.436,4.7,0,2.656-2.312,4.6-2.778,7.179a27.7,27.7,0,0,0-.115,3.274c-.208,3.546-2.52,6.461-4.946,8.679a6.243,6.243,0,0,0-2.261,3.137c-.187.912,0,1.881-.122,2.807-.352,2.3-2.649,3.467-4.681,3.769a13.568,13.568,0,0,1-7.021-.833c2.871-1.342,4.587-5.169,3.927-8.614-.9-4.745-5.671-8.148-5.269-12.986a15.026,15.026,0,0,1,1.321-4.271,39.09,39.09,0,0,0,2.254-8.1,13.719,13.719,0,0,0-.136-6.461,20.4,20.4,0,0,0-2.915-4.91,27.869,27.869,0,0,1-3.374-6.913,4.846,4.846,0,0,1-.323-2.283,4.731,4.731,0,0,1,1.436-2.369c2.613-2.735,5.413-5.585,8.887-6.375a19.926,19.926,0,0,1,5.025-.194,59.037,59.037,0,0,0,8.765-.373c2.4-.28,6.461-.244,8.485-1.809,1.888-1.436,2.958-3.266,5.291-4.185A15.484,15.484,0,0,1,277.741,273.152Z" transform="translate(-155.372 -162.616)" fill="#a66477"/>
    <path id="Path_270" data-name="Path 270" d="M898.8,213.729h0v-.266a.605.605,0,0,0-.043-.273h-.115v-.6c-.287-6.655-9.49-20.818-13.18-16.683-3.23,3.632,1.644,12.821,4.128,16.956l.223.373-.122-.079s-10.273,30.639-11.486,31.83-9.67,25.283-20.818,28c-2.2.524-4.034,1-5.571,1.436l.122-.409a44.406,44.406,0,0,0,1.96-7.179c.359-2.613,0-5.779-1.321-7.049-.646-.632-1.436-.718-1.967-1.723a7.952,7.952,0,0,1-.546-2.764l-.948-11.615.661-.2c3.991-1.278,7.861-4.307,8.313-8.385a4.307,4.307,0,0,1-.424.136q.079-.356.122-.718c-3.353,1.321-6.461-2.154-9.691-3.711-5.319-2.606-11.4-.151-16.892.445-6.224.682-12.132-1.9-18.492-1.436-3.46.266-7.308,2.613-7.121,6.023.108,1.874,1.436,3.46,1.981,5.255,1.378,4.343-1.687,8.7-4.372,12.4-1.766,2.434-3.46,5.4-3.762,8.255-6.181-6.461-12.864-13.927-13.64-16.734l-17.882-30.639s-.423.452-1.105,1.12c-.108-.33-.237-.718-.381-1.105-2.283-6.4-8.744-21.9-16.935-19.052s3.4,18.729,8.435,25.061l.718.876a2.268,2.268,0,0,1-1.278-.057l19.943,34.207s3.625,6.547,6.949,8.327c0,0,24.774,31.235,25.075,37.48s11.141,22.907,11.141,22.907,3.625,27.071-2.721,31.83h1.048q-.452.442-.926.969c-4.7,5.212-10.711,16.382-2.5,35.377,12.082,28,13.9,38.966,13.9,38.966s-22.972,1.192-27.495,2.082c-4.006.79-19.576,1.342-23.137,1.436-1.271-1.479-5.025-4.752-10.093,0-6.346,5.951-10.876,25.843-10.876,25.843s-2.419,16.066,5.743,11.9c0,0,9.67-13.388,12.383-13.984,1.349-.294,2.778-2.283,3.869-4.2l.057.036h0c.065,0,.33-.144.761-.316h0c2.01-.8,7.545-2.714,11.91-1.759,2.391.524,12.642.646,23.388.617-2.427,5.815-6.777,20.818-6.777,20.818s-1.816,13.991,4.214,13.417c4.307-.424,10.912-11.429,14.358-17.71,2.5-1.831,9.655-8.392,14.946-7.9l35.65-13.683s8.457-4.759,3.927-20.524c-3.589-12.534-13.8-38.191-17.839-48.191h0l-.122-.258c-.976-2.419-1.565-3.855-1.565-3.855h0a59,59,0,0,1-3.238-14.149c-.036-.38-.065-.768-.093-1.149a6.347,6.347,0,0,0,1.4-.811s-3.324-33.611,0-37.186h0l.057-.065h0v-.043h0l.057-.072h0l.129-.165h0l.158-.2h0c.179-.237.395-.531.639-.89h0c1.9-2.785,5.449-9.146,4.429-16.655h0q-.064-.488-.158-.984h0a20.513,20.513,0,0,0-2.068-5.829,16.167,16.167,0,0,1-.266-2.3v-2.039a6.9,6.9,0,0,1,.108-1.034v-.129a1.289,1.289,0,0,1,.065-.395v-.165a1.882,1.882,0,0,1,.086-.388v-.136c.043-.172.086-.345.144-.517v-.086q.065-.215.144-.424l.065-.165.144-.345.072-.172c.057-.129.122-.258.187-.388l.05-.108q.129-.237.273-.467l.079-.122.237-.337.115-.151.251-.3.115-.129c.129-.136.258-.273.4-.4,3.927-3.589,21.45-30.043,21.45-30.043s4.228-5.951,4.228-9.813C892.085,246.213,899.558,221.3,898.8,213.729ZM851.762,436.09c-.431-4.078-.861-9.131-1.256-14.357l6.834,10.653S856.694,435.631,851.762,436.09Z" transform="translate(-300.464 -140.608)" fill="url(#linear-gradient-4)"/>
    <path id="Path_271" data-name="Path 271" d="M785.524,526.5s-4.092-6.461-10.237-.581-10.524,25.434-10.524,25.434-2.34,15.793,5.556,11.694c0,0,9.332-13.159,11.988-13.74s5.556-7.9,5.556-7.9Z" transform="translate(-305.481 -233.273)" fill="#493545"/>
    <path id="Path_272" data-name="Path 272" d="M848.943,549.154s-5.556-2.635-7.308-.581-7.6,22.513-7.6,22.513-1.752,13.453,4.092,12.864,16.08-21.651,16.08-21.651Z" transform="translate(-325.047 -240.14)" fill="#493545"/>
    <path id="Path_273" data-name="Path 273" d="M848.943,549.154s-5.556-2.635-7.308-.581-7.6,22.513-7.6,22.513-1.752,13.453,4.092,12.864,16.08-21.651,16.08-21.651Z" transform="translate(-325.047 -240.14)" opacity="0.05"/>
    <path id="Path_274" data-name="Path 274" d="M873.03,480.3l12.57,19.591s-.876,4.386-8.478,3.51L851.1,519.777s-2.261,19.935,4.968,18.126c1.17-.294,9.332-8.772,15.2-8.184l34.508-13.453s8.184-4.68,3.8-20.172-18.887-51.414-18.887-51.414L867.767,457.5Z" transform="translate(-329.836 -211.05)" fill="#3e3d77"/>
    <path id="Path_275" data-name="Path 275" d="M873.03,480.3l12.57,19.591s-.876,4.386-8.478,3.51L851.1,519.777s-2.261,19.935,4.968,18.126c1.17-.294,9.332-8.772,15.2-8.184l34.508-13.453s8.184-4.68,3.8-20.172-18.887-51.414-18.887-51.414L867.767,457.5Z" transform="translate(-329.836 -211.05)" opacity="0.05"/>
    <path id="Path_276" data-name="Path 276" d="M863.3,500.956c1.752,11.113-8.184,11.989-8.184,11.989s-44.738.876-50-.294-12.283,2.046-12.283,2.046c-9.067-5.556-1.752-19.3-1.752-19.3s18.715-.581,23.1-1.436,26.6-2.068,26.6-2.068-1.751-10.818-13.453-38.3c-7.947-18.665-2.154-29.648,2.419-34.767a19.25,19.25,0,0,1,4.013-3.532l35.965,1.752a46.684,46.684,0,0,0,.2,5.434,57.881,57.881,0,0,0,4.774,17.947c-2.046,0-15.2,12.283-15.2,12.283S861.543,489.851,863.3,500.956Z" transform="translate(-312.212 -202.761)" fill="#3e3d77"/>
    <path id="Path_277" data-name="Path 277" d="M793.713,496.579s18.715-.581,23.1-1.436,26.6-2.046,26.6-2.046-1.752-10.818-13.453-38.3c-7.947-18.665-2.154-29.648,2.419-34.766A19.252,19.252,0,0,1,836.4,416.5l33.323,1.622v-1.041l-35.965-1.752a19.253,19.253,0,0,0-4.013,3.532c-4.551,5.126-10.366,16.1-2.419,34.767,11.73,27.459,13.467,38.277,13.467,38.277s-22.254,1.17-26.6,2.046-23.1,1.436-23.1,1.436-7.308,13.747,1.752,19.325c0,0,.273-.129.718-.316C787.532,508.2,793.713,496.579,793.713,496.579Z" transform="translate(-312.213 -202.77)" opacity="0.1"/>
    <rect id="Rectangle_38" data-name="Rectangle 38" width="18.126" height="45.901" transform="translate(516.876 105.224)" fill="#493545"/>
    <rect id="Rectangle_39" data-name="Rectangle 39" width="18.126" height="45.901" transform="translate(516.876 105.224)" opacity="0.1"/>
    <path id="Path_278" data-name="Path 278" d="M881.576,253.38c.625.172,1.328.194,1.752,1.055a6.456,6.456,0,0,1,.424,2.154l1.141,14.185a7.9,7.9,0,0,0,.531,2.714c.481.962,1.278,1.077,1.9,1.694,1.256,1.249,1.622,4.379,1.278,6.927a45.517,45.517,0,0,1-1.9,7.035c-.976,3.3-1.622,7.014-2.994,9.8s-3.862,4.307-5.47,1.967-1.393-7.064-1.694-10.933c-.5-6.461-3.022-12.032-3.195-18.535-.144-5.262,1.271-10.172,2.154-15.161.632-3.424.668-7.581,1.587-10.66C877.864,249.281,879.329,252.763,881.576,253.38Z" transform="translate(-336.207 -154.89)" fill="#493545"/>
    <path id="Path_279" data-name="Path 279" d="M881.576,253.38c.625.172,1.328.194,1.752,1.055a6.456,6.456,0,0,1,.424,2.154l1.141,14.185a7.9,7.9,0,0,0,.531,2.714c.481.962,1.278,1.077,1.9,1.694,1.256,1.249,1.622,4.379,1.278,6.927a45.517,45.517,0,0,1-1.9,7.035c-.976,3.3-1.622,7.014-2.994,9.8s-3.862,4.307-5.47,1.967-1.393-7.064-1.694-10.933c-.5-6.461-3.022-12.032-3.195-18.535-.144-5.262,1.271-10.172,2.154-15.161.632-3.424.668-7.581,1.587-10.66C877.864,249.281,879.329,252.763,881.576,253.38Z" transform="translate(-336.207 -154.89)" opacity="0.1"/>
    <path id="Path_280" data-name="Path 280" d="M770.059,219.822l-7.014,5.851s-.833-.976-2.075-2.556c-4.874-6.224-16.08-21.838-8.162-24.63s14.178,12.434,16.389,18.722C769.758,218.8,770.059,219.822,770.059,219.822Z" transform="translate(-301.424 -141.497)" fill="#c77485"/>
    <path id="Path_281" data-name="Path 281" d="M949.049,217.845c-2.922,4.386-7.014,0-7.014,0s-.524-.782-1.263-2.046c-2.4-4.07-7.121-13.094-4-16.669,3.589-4.085,12.484,9.856,12.757,16.4A3.89,3.89,0,0,1,949.049,217.845Z" transform="translate(-353.81 -141.566)" fill="#c77485"/>
    <path id="Path_282" data-name="Path 282" d="M854.08,289.523s5.851,18.715,4.092,24.264,12.577,12.01,12.577,12.01h16.375s5.851-11.988,4.386-15.5-14.034-6.138-14.034-6.138-7.308,0-7.014-19.591Z" transform="translate(-330.772 -165.879)" fill="#c77485"/>
    <path id="Path_283" data-name="Path 283" d="M774.348,227.313l-7.014,5.851s-.833-.976-2.075-2.556c2.548-.452,6.5-4.171,8.234-5.908C774.047,226.294,774.348,227.313,774.348,227.313Z" transform="translate(-305.713 -148.988)" opacity="0.1"/>
    <path id="Path_284" data-name="Path 284" d="M951.027,224.57c-2.922,4.386-7.014,0-7.014,0s-.524-.782-1.264-2.046l.093-.294c1.9,1.357,7.789.2,8.665,0a3.89,3.89,0,0,1-.481,2.34Z" transform="translate(-355.788 -148.291)" opacity="0.1"/>
    <path id="Path_285" data-name="Path 285" d="M886.2,422.473c-9.045,4.128-38.435-3.223-40.2-3.661a19.254,19.254,0,0,1,4.013-3.532l35.965,1.752A46.68,46.68,0,0,0,886.2,422.473Z" transform="translate(-328.492 -202.756)" opacity="0.1"/>
    <path id="Path_286" data-name="Path 286" d="M832.612,288.256s-7.014,2.34-16.956-6.726c0,0-22.254-21.931-23.69-27.193l-17.229-30.151s-7.308,7.9-10.237,6.726l19.3,33.625s3.51,6.461,6.726,8.184c0,0,23.977,30.7,24.264,36.841s10.8,22.577,10.8,22.577,3.51,26.6-2.635,31.285c0,0,34.207,8.772,41.515,2.922,0,0-3.216-33.022,0-36.547,0,0,9.943-11.694,3.216-24.558,0,0-1.436-7.014,2.34-10.524s20.761-29.533,20.761-29.533,4.092-5.851,4.092-9.648c0,0,7.6-25.729,6.461-32.455,0,0-6.726,1.436-8.772,0,0,0-9.943,30.151-11.113,31.285s-9.332,24.853-20.172,27.487-12.57,3.8-12.57,3.8,21.048,13.159,10.818,19S832.612,288.256,832.612,288.256Z" transform="translate(-305.499 -148.53)" fill="#ffaac4"/>
    <path id="Path_287" data-name="Path 287" d="M871.288,294.476a55.849,55.849,0,0,1-.424-8.306l-16.375,4.968a22.081,22.081,0,0,1,1.027,3.36c1.874.826,4.4,2.778,6.576,2.778A14.91,14.91,0,0,0,871.288,294.476Z" transform="translate(-330.887 -166.33)" opacity="0.1"/>
    <circle id="Ellipse_79" data-name="Ellipse 79" cx="15.205" cy="15.205" r="15.205" transform="translate(515.706 99.668)" fill="#c77485"/>
    <path id="Path_288" data-name="Path 288" d="M834.409,246.539c-3.345.258-7.078,2.57-6.892,5.922.1,1.845,1.364,3.4,1.917,5.169,1.328,4.271-1.63,8.557-4.228,12.2s-5.025,8.478-2.8,12.34a30.427,30.427,0,0,0,2.053,2.678c2.75,3.711,2.714,8.722,3.934,13.18a23.123,23.123,0,0,0,27.164,16.511,14.458,14.458,0,0,1-3.051-9.777c.165-2.556.991-5.226,0-7.588-1.278-3.037-5.025-4.235-6.956-6.892s-1.8-6.339-.869-9.5,2.548-6.1,3.324-9.332a28.106,28.106,0,0,1,.718-2.793c1.35-3.833,5.384-6.059,9.332-7.014s8.1-1.012,11.953-2.268,7.6-4.2,8.047-8.241c-3.245,1.3-6.253-2.089-9.383-3.647-5.154-2.556-11.034-.151-16.346.438C846.276,248.6,840.533,246.094,834.409,246.539Z" transform="translate(-321.589 -155.091)" opacity="0.1"/>
    <path id="Path_289" data-name="Path 289" d="M834,245.729c-3.345.258-7.078,2.57-6.892,5.922.1,1.845,1.364,3.4,1.917,5.169,1.328,4.271-1.63,8.557-4.228,12.2s-5.025,8.478-2.8,12.34a30.464,30.464,0,0,0,2.053,2.678c2.75,3.711,2.714,8.722,3.934,13.18a23.122,23.122,0,0,0,27.164,16.511,14.457,14.457,0,0,1-3.051-9.777c.165-2.556.991-5.226,0-7.588-1.278-3.037-5.025-4.235-6.956-6.892s-1.8-6.339-.869-9.5,2.548-6.1,3.324-9.332a28.1,28.1,0,0,1,.718-2.793c1.35-3.833,5.384-6.059,9.332-7.014s8.1-1.012,11.953-2.268,7.6-4.2,8.047-8.241c-3.245,1.3-6.253-2.089-9.383-3.647-5.154-2.556-11.034-.151-16.346.438C845.88,247.782,840.159,245.248,834,245.729Z" transform="translate(-321.474 -154.863)" fill="#493545"/>
    <path id="Path_290" data-name="Path 290" d="M885.65,326.3s6.088,5.434,7.286,7.832" transform="translate(-339.679 -177.652)" opacity="0.1"/>
    <path id="Path_291" data-name="Path 291" d="M894.921,371.51s-7.6,0-11.113.876-11.988,0-11.988,0" transform="translate(-335.777 -190.407)" opacity="0.1"/>
    <g id="Group_13" data-name="Group 13" transform="translate(458.994 74.528)" opacity="0.1">
      <path id="Path_292" data-name="Path 292" d="M892.6,329.212a7.31,7.31,0,0,1-2.1.8,8.04,8.04,0,0,0,5.614-.8c10.237-5.851-10.818-19-10.818-19h-3.51S902.835,323.369,892.6,329.212Z" transform="translate(-797.581 -247.64)"/>
      <path id="Path_293" data-name="Path 293" d="M953.731,223.581a3.063,3.063,0,0,0-.072-.531,34.344,34.344,0,0,1-3.64.553,16.125,16.125,0,0,0,3.711-.022Z" transform="translate(-816.833 -223.05)"/>
      <path id="Path_294" data-name="Path 294" d="M826.471,366.5c6.138-4.68,2.635-31.285,2.635-31.285s-10.524-16.375-10.818-22.512-24.264-36.841-24.264-36.841c-3.216-1.752-6.727-8.184-6.727-8.184S767.412,235.22,764.49,234.05l19.3,33.625s3.51,6.461,6.726,8.184c0,0,23.977,30.7,24.264,36.841s10.811,22.534,10.811,22.534,3.51,26.6-2.635,31.285c0,0,21.026,5.391,33.632,4.9C843.951,370.977,826.471,366.5,826.471,366.5Z" transform="translate(-764.49 -226.153)"/>
      <path id="Path_295" data-name="Path 295" d="M859.313,314.1l-.172-.223a4.619,4.619,0,0,1-.61.136C858.8,314.052,859.061,314.081,859.313,314.1Z" transform="translate(-791.021 -248.676)"/>
    </g>
    <g id="Group_14" data-name="Group 14" transform="translate(558.692 74.492)" opacity="0.1">
      <path id="Path_296" data-name="Path 296" d="M941.654,223l-.179.036c-.309,8.981-6.54,30.079-6.54,30.079,0,3.8-4.092,9.648-4.092,9.648s-16.956,26.023-20.761,29.533-2.34,10.524-2.34,10.524l.036.072c-.115-2.362.172-6.023,2.592-8.263,3.8-3.51,20.761-29.533,20.761-29.533s4.092-5.851,4.092-9.648C935.221,255.491,942.824,229.762,941.654,223Z" transform="translate(-904.525 -223)"/>
      <path id="Path_297" data-name="Path 297" d="M903.37,361.97c.438,2.484.144-.144.294,2.34,0,0,7.179-8.421,5.219-18.83C909.472,354.784,903.37,361.97,903.37,361.97Z" transform="translate(-903.37 -257.555)"/>
    </g>
    <path id="Path_298" data-name="Path 298" d="M427.493,653.469s-10.452-35.5,1.96-61.622a56.066,56.066,0,0,0,4.537-35.176,94.294,94.294,0,0,0-4.982-16.511" transform="translate(-209.258 -237.988)" fill="none" stroke="#535461" stroke-miterlimit="10" stroke-width="2"/>
    <path id="Path_299" data-name="Path 299" d="M435.785,513.848c0,4.35-7.9,16.963-7.9,16.963s-7.9-12.613-7.9-16.963a7.9,7.9,0,1,1,15.75,0Z" transform="translate(-208.297 -228.172)" fill="#6c63ff"/>
    <path id="Path_300" data-name="Path 300" d="M453.889,545.771c-2.362,3.654-15.829,9.957-15.829,9.957s.244-14.867,2.606-18.521a7.9,7.9,0,1,1,13.223,8.564Z" transform="translate(-213.401 -236.004)" fill="#6c63ff"/>
    <path id="Path_301" data-name="Path 301" d="M451.985,602.138c-3.884,1.96-18.665.6-18.665.6s7.717-12.714,11.6-14.673a7.9,7.9,0,1,1,7.093,14.063Z" transform="translate(-212.063 -251.186)" fill="#6c63ff"/>
    <path id="Path_302" data-name="Path 302" d="M441.747,645.939c-3.5,2.584-18.327,3.754-18.327,3.754s5.456-13.833,8.959-16.425a7.9,7.9,0,0,1,9.332,12.663Z" transform="translate(-209.27 -263.932)" fill="#6c63ff"/>
    <path id="Path_303" data-name="Path 303" d="M413.895,560.312c3.123,3.029,17.66,6.174,17.66,6.174s-3.589-14.436-6.683-17.473a7.9,7.9,0,1,0-10.976,11.3Z" transform="translate(-205.789 -239.74)" fill="#6c63ff"/>
    <path id="Path_304" data-name="Path 304" d="M402.024,610.8c3.884,1.96,18.665.6,18.665.6S413,598.686,409.116,596.762a7.9,7.9,0,0,0-7.093,14.063Z" transform="translate(-202.152 -253.786)" fill="#6c63ff"/>
    <path id="Path_305" data-name="Path 305" d="M397.652,661.652c3.5,2.584,18.327,3.754,18.327,3.754s-5.456-13.833-8.959-16.425a7.9,7.9,0,1,0-9.332,12.663Z" transform="translate(-200.94 -268.13)" fill="#6c63ff"/>
    <path id="Path_306" data-name="Path 306" d="M435.785,513.848c0,4.35-7.9,16.963-7.9,16.963s-7.9-12.613-7.9-16.963a7.9,7.9,0,1,1,15.75,0Z" transform="translate(-208.297 -228.172)" fill="#6c63ff" opacity="0.1"/>
    <path id="Path_307" data-name="Path 307" d="M453.889,545.771c-2.362,3.654-15.829,9.957-15.829,9.957s.244-14.867,2.606-18.521a7.9,7.9,0,1,1,13.223,8.564Z" transform="translate(-213.401 -236.004)" fill="#6c63ff" opacity="0.1"/>
    <path id="Path_308" data-name="Path 308" d="M451.985,602.138c-3.884,1.96-18.665.6-18.665.6s7.717-12.714,11.6-14.673a7.9,7.9,0,1,1,7.093,14.063Z" transform="translate(-212.063 -251.186)" fill="#6c63ff" opacity="0.1"/>
    <path id="Path_309" data-name="Path 309" d="M441.747,645.939c-3.5,2.584-18.327,3.754-18.327,3.754s5.456-13.833,8.959-16.425a7.9,7.9,0,0,1,9.332,12.663Z" transform="translate(-209.27 -263.932)" fill="#6c63ff" opacity="0.1"/>
    <path id="Path_310" data-name="Path 310" d="M413.895,560.312c3.123,3.029,17.66,6.174,17.66,6.174s-3.589-14.436-6.683-17.473a7.9,7.9,0,1,0-10.976,11.3Z" transform="translate(-205.789 -239.74)" fill="#6c63ff" opacity="0.1"/>
    <path id="Path_311" data-name="Path 311" d="M402.024,610.8c3.884,1.96,18.665.6,18.665.6S413,598.686,409.116,596.762a7.9,7.9,0,0,0-7.093,14.063Z" transform="translate(-202.152 -253.786)" fill="#6c63ff" opacity="0.1"/>
    <path id="Path_312" data-name="Path 312" d="M397.652,661.652c3.5,2.584,18.327,3.754,18.327,3.754s-5.456-13.833-8.959-16.425a7.9,7.9,0,1,0-9.332,12.663Z" transform="translate(-200.94 -268.13)" fill="#6c63ff" opacity="0.1"/>
    <path id="Path_313" data-name="Path 313" d="M722.133,654.179s-10.452-35.5,1.96-61.622a56.066,56.066,0,0,0,4.537-35.176,94.294,94.294,0,0,0-4.982-16.511" transform="translate(-292.385 -238.188)" fill="none" stroke="#535461" stroke-miterlimit="10" stroke-width="2"/>
    <path id="Path_314" data-name="Path 314" d="M730.413,515.006c0,4.35-7.9,16.963-7.9,16.963s-7.9-12.613-7.9-16.963a7.9,7.9,0,0,1,15.75,0Z" transform="translate(-291.426 -228.828)" fill="#6c63ff"/>
    <path id="Path_315" data-name="Path 315" d="M748.539,546.471c-2.362,3.654-15.829,9.957-15.829,9.957s.244-14.867,2.606-18.521a7.9,7.9,0,1,1,13.223,8.564Z" transform="translate(-296.53 -236.201)" fill="#6c63ff"/>
    <path id="Path_316" data-name="Path 316" d="M746.665,602.832c-3.884,1.96-18.665.6-18.665.6s7.717-12.714,11.6-14.673a7.9,7.9,0,1,1,7.064,14.07Z" transform="translate(-295.201 -251.378)" fill="#6c63ff"/>
    <path id="Path_317" data-name="Path 317" d="M736.387,646.639c-3.5,2.584-18.327,3.754-18.327,3.754s5.456-13.833,8.959-16.425a7.9,7.9,0,0,1,9.332,12.663Z" transform="translate(-292.397 -264.13)" fill="#6c63ff"/>
    <path id="Path_318" data-name="Path 318" d="M708.554,561.012c3.123,3.029,17.66,6.174,17.66,6.174s-3.589-14.436-6.683-17.473a7.9,7.9,0,1,0-10.976,11.3Z" transform="translate(-288.921 -239.938)" fill="#6c63ff"/>
    <path id="Path_319" data-name="Path 319" d="M696.652,611.483c3.884,1.96,18.665.6,18.665.6s-7.717-12.714-11.6-14.673a7.9,7.9,0,0,0-7.093,14.063Z" transform="translate(-285.267 -253.969)" fill="#6c63ff"/>
    <path id="Path_320" data-name="Path 320" d="M692.747,662.679c3.5,2.584,18.327,3.754,18.327,3.754s-5.456-13.833-8.959-16.425a7.9,7.9,0,0,0-9.332,12.663Z" transform="translate(-284.513 -268.655)" fill="#6c63ff"/>
    <path id="Path_321" data-name="Path 321" d="M730.413,515.006c0,4.35-7.9,16.963-7.9,16.963s-7.9-12.613-7.9-16.963a7.9,7.9,0,0,1,15.75,0Z" transform="translate(-291.426 -228.828)" fill="#6c63ff" opacity="0.1"/>
    <path id="Path_322" data-name="Path 322" d="M748.539,546.471c-2.362,3.654-15.829,9.957-15.829,9.957s.244-14.867,2.606-18.521a7.9,7.9,0,1,1,13.223,8.564Z" transform="translate(-296.53 -236.201)" fill="#6c63ff" opacity="0.1"/>
    <path id="Path_323" data-name="Path 323" d="M746.665,602.832c-3.884,1.96-18.665.6-18.665.6s7.717-12.714,11.6-14.673a7.9,7.9,0,1,1,7.064,14.07Z" transform="translate(-295.201 -251.378)" fill="#6c63ff" opacity="0.1"/>
    <path id="Path_324" data-name="Path 324" d="M736.387,646.639c-3.5,2.584-18.327,3.754-18.327,3.754s5.456-13.833,8.959-16.425a7.9,7.9,0,0,1,9.332,12.663Z" transform="translate(-292.397 -264.13)" fill="#6c63ff" opacity="0.1"/>
    <path id="Path_325" data-name="Path 325" d="M708.554,561.012c3.123,3.029,17.66,6.174,17.66,6.174s-3.589-14.436-6.683-17.473a7.9,7.9,0,1,0-10.976,11.3Z" transform="translate(-288.921 -239.938)" fill="#6c63ff" opacity="0.1"/>
    <path id="Path_326" data-name="Path 326" d="M696.652,611.483c3.884,1.96,18.665.6,18.665.6s-7.717-12.714-11.6-14.673a7.9,7.9,0,0,0-7.093,14.063Z" transform="translate(-285.267 -253.969)" fill="#6c63ff" opacity="0.1"/>
    <path id="Path_327" data-name="Path 327" d="M692.747,662.679c3.5,2.584,18.327,3.754,18.327,3.754s-5.456-13.833-8.959-16.425a7.9,7.9,0,0,0-9.332,12.663Z" transform="translate(-284.513 -268.655)" fill="#6c63ff" opacity="0.1"/>
    <path id="Path_328" data-name="Path 328" d="M776.854,132.069h-4.508a3.159,3.159,0,1,0,0-6.31H735.791a3.159,3.159,0,0,0,0,6.31H740.3a3.159,3.159,0,0,0,0,6.31h-6.31a3.159,3.159,0,1,0,0,6.31h36.525a3.159,3.159,0,1,0,0-6.31h6.339a3.159,3.159,0,0,0,0-6.31Z" transform="translate(-295.957 -121.072)" fill="#dee3f3" opacity="0.5"/>
    <path id="Path_329" data-name="Path 329" d="M486.972,158.3H483.54a2.4,2.4,0,1,0,0-4.8h-27.8a2.4,2.4,0,0,0,0,4.8h3.431a2.4,2.4,0,1,0,0,4.8h-4.8a2.4,2.4,0,1,0,0,4.8h27.8a2.4,2.4,0,1,0,0-4.8h4.8a2.4,2.4,0,0,0,0-4.8Z" transform="translate(-217.288 -128.899)" fill="#dee3f3" opacity="0.5"/>
    <path id="Path_364" data-name="Path 364" d="M284.923,191.4h-4.508a3.159,3.159,0,1,0,0-6.31H243.89a3.159,3.159,0,0,0,0,6.31H248.4a3.159,3.159,0,0,0,0,6.31h-6.31a3.159,3.159,0,0,0,0,6.31h36.525a3.159,3.159,0,1,0,0-6.31h6.31a3.159,3.159,0,0,0,0-6.31Z" transform="translate(-157.263 -137.811)" fill="#dee3f3" opacity="0.5"/>
  </g>
</svg>
