<svg xmlns="http://www.w3.org/2000/svg" xmlns:xlink="http://www.w3.org/1999/xlink" width="356" height="473.426" viewBox="0 0 356 473.426">
  <defs>
    <linearGradient id="linear-gradient" x1="0.02" x2="1.087" y2="1.111" gradientUnits="objectBoundingBox">
      <stop offset="0" stop-color="#f0f0f0"/>
      <stop offset="1" stop-color="#fff"/>
    </linearGradient>
  </defs>
  <g id="home-02" transform="translate(-230 -1258.456)">
    <g id="circle-bg" transform="translate(-230 -1258.456)">
      <circle  cx="178" cy="178" r="178" transform="translate(230 1351)" fill="url(#linear-gradient)"/>
    </g>
    <g id="woman" transform="translate(261 1258)">
      <g id="Bottom_Skinny_Jeans_1" data-name="Bottom/Skinny Jeans 1" transform="translate(0 215.436)">
        <path id="Leg" d="M112.575.084C91.9,16.948,99.878,164.945,98.5,166.807,97.579,168.049.14,187.873.14,187.873l2.813,11.456s113.992-5.576,120.629-14.037c9.5-12.114,23.412-135.559,23.412-135.559Z" transform="matrix(0.574, -0.819, 0.819, 0.574, 61.696, 92.168)" fill="#b28b67"/>
        <path id="Pant" d="M.137,183.376,5.09,201.827c56.655,6.551,93.995-1.478,107.13-13.979S135.694,52.658,135.694,52.658L98.874.074C49.646,37.217,79.1,158.951,77.84,161.735S46.709,166.7.137,183.376Z" transform="matrix(0.574, -0.819, 0.819, 0.574, 68.276, 81.015)" fill="#2f3676"/>
        <g id="Right_Show" data-name="Right Show" transform="translate(218.311 170.914) rotate(20)">
          <path id="shoe" d="M4.474,5.033A2,2,0,0,0,1.908,6.381L0,13.106A64.242,64.242,0,0,0,.9,21H57.3s2.2-7.268-2.538-7.848-7.87-1.047-7.87-1.047L20.68.419a1,1,0,0,0-1.332.532L17.663,5.039s-4.385,2.046-7.127,2.046Z" transform="translate(1 19)" fill="#e4e4e4"/>
        </g>
        <path id="Leg-2" data-name="Leg" d="M111.129,0,55.084,134.335,0,247.9H13L155.182,0Z" transform="translate(29.672)" fill="#997659"/>
        <g id="Left_Shot" data-name="Left Shot" transform="translate(25.994 215.192)">
          <path id="shoe-2" data-name="shoe" d="M4.845,5.415A2.167,2.167,0,0,0,2.067,6.874L0,14.145a69.363,69.363,0,0,0,.976,8.537H62.064s2.381-7.86-2.749-8.486-8.524-1.132-8.524-1.132L22.4.426A1.084,1.084,0,0,0,20.956,1l-1.825,4.42s-4.749,2.212-7.719,2.212Z" transform="translate(1.083 20.573)" fill="#e4e4e4"/>
        </g>
        <path id="Pant-2" data-name="Pant" d="M0,224.311l28.877,5.407C51.205,196.944,144.648,62.559,154.894,0H90.606C56.392,45.224,21.283,190.995,0,224.311Z" transform="translate(34.646 0)" fill="#5c63ab"/>
      </g>
      <g id="Head_Front" data-name="Head/Front" transform="translate(112.442 0.456) rotate(14)">
        <g id="Head" transform="translate(58.487 33.523)">
          <path id="Head-2" data-name="Head" d="M0,78.939,8.949,37.3C3.958,31.447.58,24.279,1.144,16.248,2.771-6.894,35.036-1.8,41.312,9.877s5.531,41.307-2.58,43.394c-3.235.833-10.126-1.207-17.14-5.428l4.4,31.1Z" transform="translate(0 0)" fill="#b28b67"/>
        </g>
        <path id="hair" d="M84.924,23.772a29.637,29.637,0,0,0-1.395-4.628,21.643,21.643,0,0,0-2.735-5.08,38.421,38.421,0,0,0-7.233-7.836C68.595,2.185,62.274-.148,56.058.609a17.983,17.983,0,0,0-8.778,3.567c-2.343,1.8-4.6,4.444-7.63,4.634-3.3.207-6.327-2.7-8.974-4.5A24.136,24.136,0,0,0,21.026.237a16.057,16.057,0,0,0-15.362,5.8C1.378,11.129-1.738,18.6,1.077,25.35a8.66,8.66,0,0,0,2.162,3.189c.886.8,2.239,1.659,2.6,2.944.382,1.365-.758,3.127-1.2,4.359a12.812,12.812,0,0,0-.968,5.537c.3,3.151,2.287,6.159,4.381,8.23a14.572,14.572,0,0,0,7.556,3.873,21.235,21.235,0,0,0,5.684.438,17.713,17.713,0,0,0,2.691-.539,2.437,2.437,0,0,1,2.141.52,17.586,17.586,0,0,0,11.321,2.8c3.416-.284,7.352-1.111,10.139-3.447,3.094-2.6,3.033-6.173,2.3-10,.771.382,2.906.618,1.63-.9a6.908,6.908,0,0,0-2.108-1.2A7.668,7.668,0,0,1,47.3,39.534c-2.367-2.718.024-8.25,3-9.161,4.42-1.354,5.409,4.886,8.564,6.5,1.814.928,3.712-.34,5.071-1.636a20.267,20.267,0,0,0,4.132-6.373c.882-1.926,1.7-3.88,2.6-5.8.42-.9,1.874-3.426,1.144-4.438,3.166-.63,6.691.683,9.417,2.405a6.434,6.434,0,0,1,2.587,2.754c.129.269.409,1.07.761,1.1.655.061.41-.738.346-1.119" transform="translate(17.329 24.871)" fill="#191847"/>
      </g>
      <g id="Body_Long_Sleeve_1" data-name="Body/Long Sleeve 1" transform="matrix(1, 0.017, -0.017, 1, 24.777, 103.074)">
        <path id="Skin" d="M1.329,93.844C.12,93.1-1.2,90.3,1.994,88.107,9.964,82.652,21.448,73.1,23,69.961,26.174,63.532,36.982.874,36.982.874l22.633.09s-20.963,67.564-22.633,71.7c-2.506,6.2,2.8,15.646,5.065,20.721-3.575,1.6-5.236-.442-7.053-2.481-1.938-2.173-4.056-4.346-8.864-2.113-6.152,2.858-11.239,7.394-17.3,7.394A14.084,14.084,0,0,1,1.329,93.844Zm194.877-60.83L161.994,18.85,169.631,0,204.18,25.329a93.056,93.056,0,0,1,23.485,9.423c1.486,1.351,3.28,4.087-2.879,3.615s-12.658-.694-13.508,1.4,2.878,4.605,1.159,7.435a.817.817,0,0,1-.749.4Q208.652,47.609,196.206,33.014Z" transform="translate(37.001 99.714)" fill="#b28b67"/>
        <path id="Coat_Back" data-name="Coat Back" d="M0,2.413,9.19,0C46.419,26.827,65.655,82.94,110.745,109.613l-9.107,13.533C27.231,120.486,2.865,52.12,0,2.413Z" transform="matrix(0.996, 0.087, -0.087, 0.996, 138.515, 3.362)" fill="#e87613"/>
        <path id="Shirt" d="M0,123.276H82.868c3.787,0,3.073-5.459,2.526-8.214C79.077,83.269,54.416,49,54.416,3.742L30.512,0C10.741,31.747,3.9,70.834,0,123.276Z" transform="translate(97.478)" fill="#dde3e9"/>
        <path id="Coat_Front" data-name="Coat Front" d="M.11,172.492C-1.8,110.769,21.605,63.27,41.193,34.632a12.572,12.572,0,0,1-10.757-6.6C21.7,12.295,24.855,3.629,34.192.78S51.855,3.8,66.731,3.8a11.613,11.613,0,0,1,1.774.126l7.932.452s32.2,108.97,17.763,145.406H28.7a207.365,207.365,0,0,1-10.818,22.708Z" transform="translate(59.46 -3.799)" fill="#ff9b21"/>
        <path id="Shade" d="M24.481,39.52H0C4.49,28.754,9.443,15.458,14.72,0c2.2,19.05,5.481,32.345,9.76,39.518Z" transform="translate(88.16 106.465)" fill="rgba(0,0,0,0.1)"/>
      </g>
    </g>
    <g id="circle" transform="translate(289 1346)">
      <circle cx="25" cy="25" r="25" transform="translate(289 1346)" fill="#ff9b21"/>
    </g>
    
  </g>

  <style>
    #circle-bg {
      animation: circle-bg-anim linear 5s infinite
    }

    #circle {
      animation: circle-anim linear 5s infinite;
      transform-origin: center;
      transform-box: fill-box;
    }

    @keyframes circle-bg-anim{
      0%{
        transform: translateY(0)
      }
      50%{
        transform: translateY(20px)
      }
      100%{
        transform: translateY(0)
      }
    }

    @keyframes circle-anim{
      0%{
        transform: scale(0.95)
      }
      50%{
        transform: scale(1.3)
      }
      100%{
        transform: scale(0.95)
      }
    }
  </style>
</svg>
