<svg id="Group_1" data-name="Group 1" xmlns="http://www.w3.org/2000/svg" width="375" height="375" viewBox="0 0 375 375">
  <rect id="Rectangle_1" data-name="Rectangle 1" width="375" height="375" fill="#fff"/>
  <path id="Path_1" data-name="Path 1" d="M160.7,3.1c61.26,0,66.172,41.71,49.629,86.51S167,133.771,117.375,144.02,0,139.423,0,89.612,99.441,3.1,160.7,3.1Z" transform="translate(78.606 100.765)" fill="#f3f3f3"/>
  <path id="Icon_material-sim-card-alert" data-name="Icon material-sim-card-alert" d="M95.478,3H44.348L6.128,41.348,6,118.044a12.82,12.82,0,0,0,12.783,12.783h76.7a12.82,12.82,0,0,0,12.783-12.783V15.783A12.82,12.82,0,0,0,95.478,3ZM63.522,98.87H50.739V86.087H63.522Zm0-25.565H50.739V41.348H63.522Z" transform="translate(130.597 139.7)" fill="#31dbb9"/>
</svg>
