<svg xmlns="http://www.w3.org/2000/svg" width="45" height="35.997" viewBox="0 0 45 35.997">
  <path id="requests-icon" d="M34.313,13.5H23.625v3.938a5.063,5.063,0,0,1-10.125,0V8.887L8.937,11.63A4.49,4.49,0,0,0,6.75,15.483v3.326L1.125,22.057A2.245,2.245,0,0,0,.3,25.13l5.625,9.745A2.251,2.251,0,0,0,9,35.7l7.27-4.2h9.6a4.5,4.5,0,0,0,4.5-4.5H31.5a2.248,2.248,0,0,0,2.25-2.25v-4.5h.563A1.683,1.683,0,0,0,36,18.563V15.188A1.683,1.683,0,0,0,34.313,13.5ZM44.7,10.87,39.073,1.125A2.251,2.251,0,0,0,36,.3L28.73,4.5H21.544a4.534,4.534,0,0,0-2.384.682L16.8,6.652A2.235,2.235,0,0,0,15.75,8.557v8.88a2.813,2.813,0,0,0,5.625,0V11.25H34.313a3.94,3.94,0,0,1,3.938,3.938v2l5.625-3.248A2.252,2.252,0,0,0,44.7,10.87Z" transform="translate(0.002 -0.001)" fill="#ab84b5"/>
</svg>
