<svg xmlns="http://www.w3.org/2000/svg" xmlns:xlink="http://www.w3.org/1999/xlink" viewBox="0 0 442.7 70.76"><defs><style>.cls-1{fill:#424242;}.cls-2{fill:url(#linear-gradient);}</style><linearGradient id="linear-gradient" x1="117.95" y1="10.85" x2="41.91" y2="37.51" gradientUnits="userSpaceOnUse"><stop offset="0" stop-color="#BBF0F1"/><stop offset="1" stop-color="#3AB3D1"/></linearGradient></defs><title>Asset 1</title><g id="Layer_2" data-name="Layer 2"><g id="Layer_1-2" data-name="Layer 1"><path class="cls-1" d="M40.43,12.64A21.76,21.76,0,0,0,20.22,0C7.58,0,0,12.64,0,22.74c0,27.8,40.43,43.74,40.43,43.74Z"/><path class="cls-2" d="M40.43,12.64C41.58,9.25,45.49,0,60.65,0,73.29,0,80.87,12.64,80.87,22.74c0,27.8-40.44,48-40.44,48S2.64,50.58.11,25.31C17.8,43,35.66,26.82,40.43,12.64Z"/><path class="cls-1" d="M122.82,11.62a.64.64,0,0,1,.72-.72h18.21a19.77,19.77,0,0,1,10.8,2.74,14.76,14.76,0,0,1,6.12,8.28c.19.67.37,1.38.54,2.12a25.82,25.82,0,0,1,.43,2.63c.12,1,.21,2.21.26,3.6s.07,3.09.07,5.11,0,3.72-.07,5.11-.14,2.59-.26,3.6a25.36,25.36,0,0,1-.43,2.63c-.17.74-.35,1.45-.54,2.12a14.76,14.76,0,0,1-6.12,8.28,19.77,19.77,0,0,1-10.8,2.74H123.54a.64.64,0,0,1-.72-.72ZM133.4,50a.38.38,0,0,0,.43.43h5.55a12.62,12.62,0,0,0,5.9-1.19A6.76,6.76,0,0,0,148.45,45a7,7,0,0,0,.36-1.19c.09-.46.18-1,.25-1.76s.12-1.62.14-2.7,0-2.42,0-4,0-2.9,0-4-.07-1.94-.14-2.66-.16-1.31-.25-1.77a10.42,10.42,0,0,0-.36-1.26,6.76,6.76,0,0,0-3.17-4.21,12.62,12.62,0,0,0-5.9-1.19h-5.55a.38.38,0,0,0-.43.43Z"/><path class="cls-1" d="M168.18,11.62a.64.64,0,0,1,.72-.72H178a.64.64,0,0,1,.72.72V59.14a.64.64,0,0,1-.72.72H168.9a.64.64,0,0,1-.72-.72Z"/><path class="cls-1" d="M215.19,59.86a1.07,1.07,0,0,1-1.08-.72l-8.42-17.93h-6.56a.39.39,0,0,0-.43.43v17.5a.64.64,0,0,1-.72.72h-9.14a.64.64,0,0,1-.72-.72V11.62a.64.64,0,0,1,.72-.72h19.51A19.66,19.66,0,0,1,215.16,12a15.32,15.32,0,0,1,5.25,3.13A13.86,13.86,0,0,1,223.8,20,15.56,15.56,0,0,1,225,26.09a14.84,14.84,0,0,1-2.3,8.28,14.33,14.33,0,0,1-6.41,5.33L225.92,59a.72.72,0,0,1,0,.61.52.52,0,0,1-.5.25Zm-7.41-27.65a6.86,6.86,0,0,0,4.82-1.65,5.79,5.79,0,0,0,1.8-4.47,5.68,5.68,0,0,0-1.8-4.39A6.87,6.87,0,0,0,207.78,20h-8.65a.39.39,0,0,0-.43.44v11.3a.38.38,0,0,0,.43.43Z"/><path class="cls-1" d="M233.05,11.62a.64.64,0,0,1,.72-.72h9.14a.64.64,0,0,1,.72.72V50a.38.38,0,0,0,.43.43h21.6a.64.64,0,0,1,.72.72v8a.64.64,0,0,1-.72.72H233.77a.64.64,0,0,1-.72-.72Z"/><path class="cls-1" d="M272.65,11.62a.64.64,0,0,1,.72-.72h9.14a.64.64,0,0,1,.72.72V32.79L299.5,11.55a1.4,1.4,0,0,1,1.23-.65h10.44a.44.44,0,0,1,.46.29.63.63,0,0,1-.18.65L296.62,30.41,312.82,59c.34.57.19.86-.43.86H301.81a1.17,1.17,0,0,1-1.08-.65L289.64,38.62l-6.41,8.06V59.14a.64.64,0,0,1-.72.72h-9.14a.64.64,0,0,1-.72-.72Z"/><path class="cls-1" d="M319.09,11.62a.64.64,0,0,1,.72-.72H329a.64.64,0,0,1,.72.72V30a.38.38,0,0,0,.43.43h16a.38.38,0,0,0,.43-.43V11.62a.64.64,0,0,1,.72-.72h9.14a.64.64,0,0,1,.72.72V59.14a.64.64,0,0,1-.72.72h-9.14a.64.64,0,0,1-.72-.72V40.28a.39.39,0,0,0-.43-.44h-16a.38.38,0,0,0-.43.44V59.14a.64.64,0,0,1-.72.72h-9.14a.64.64,0,0,1-.72-.72Z"/><path class="cls-1" d="M366.46,11.62a.64.64,0,0,1,.72-.72h9.14a.64.64,0,0,1,.72.72V59.14a.64.64,0,0,1-.72.72h-9.14a.64.64,0,0,1-.72-.72Z"/><path class="cls-1" d="M413.48,59.86a1.07,1.07,0,0,1-1.08-.72L404,41.21h-6.55a.38.38,0,0,0-.43.43v17.5a.64.64,0,0,1-.72.72h-9.15a.64.64,0,0,1-.72-.72V11.62a.64.64,0,0,1,.72-.72h19.52a19.6,19.6,0,0,1,6.8,1.12,15.46,15.46,0,0,1,5.26,3.13A13.7,13.7,0,0,1,422.08,20a15.57,15.57,0,0,1,1.19,6.12A14.76,14.76,0,0,1,421,34.37a14.31,14.31,0,0,1-6.4,5.33L424.2,59a.65.65,0,0,1,0,.61.51.51,0,0,1-.5.25Zm-7.42-27.65a6.84,6.84,0,0,0,4.82-1.65,5.79,5.79,0,0,0,1.8-4.47,5.68,5.68,0,0,0-1.8-4.39A6.85,6.85,0,0,0,406.06,20h-8.64a.38.38,0,0,0-.43.44v11.3a.38.38,0,0,0,.43.43Z"/><circle class="cls-1" cx="436.2" cy="53.36" r="6.5"/></g></g></svg>